<svg xmlns="http://www.w3.org/2000/svg" width="1200" height="600" viewBox="0 0 1200 600"><path opacity=".9" fill-rule="evenodd" clip-rule="evenodd" fill="#C22A27" stroke="#C32A28" stroke-width="4" stroke-miterlimit="10" d="M326.611 88.16c23.133 3.205 46.114 6.558 69.668 9.342 2.952-8.761 1.065-22.125 11.288-25.299 10.366-3.22 25.971-1.623 38.142 0 23.23 3.097 45.81 9.464 64.609 17.903 10.361 4.652 27.753 11.885 22.185 25.688 15.074 2.829 31.236 4.571 47.094 6.617 3.624-4.57 2.549-17.213 7.006-21.796 5.749-5.912 24.431-3.549 34.639-1.946 22.633 3.553 42.026 10.205 60.327 18.293 8.249 3.645 20.499 8.946 23.354 15.957.942 2.316.654 4.866-.389 6.616 9.336 1.303 18.883 2.393 28.023 3.893 3.135-4.232 4.51-18.456 8.561-21.796 6.086-5.016 24.253-1.354 32.695.39 21.149 4.366 39.596 10.719 56.435 19.071 6.711 3.329 20.664 8.92 21.016 16.347.152 3.179-2.591 7.447-3.891 10.897-1.497 3.968-2.825 7.651-4.283 10.509 2.199 1.355 5.555 5.405 8.953 5.839 1.579.201 4.836-1.02 7.006-1.168 12.541-.855 25.734 2.439 36.976 5.448 26.56 7.113 53.516 16.412 73.559 31.916 4.138 3.199 9.039 7.194 9.341 11.675.29 4.334-2.953 8.293-4.671 12.065-1.813 3.984-3.163 7.65-5.059 11.288 21.954 15.28 46.724 27.744 68.5 43.203-32.624 68.567-66.314 136.074-100.026 203.556-271.241 19.731-544.637 39.476-815.779 57.991-2.242-10.067-1.995-20.567-2.725-30.747-2.228-31.105-3.683-62.975-5.838-94.577-2.861-41.953-5.793-83.889-7.784-125.715-.99-20.781 1.252-41.766 2.724-62.662 2.925-41.486 6.471-82.92 9.341-124.546 1.416-20.549 2.886-40.945 5.449-61.106 15.752.598 31.973 4.091 47.873 5.838 1.527-5.867 1.303-13.486 2.336-19.85 7.153-7.892 21.367-8.952 34.639-8.952 34.162 0 71.811 9.032 98.47 20.628 7.99 3.476 21.263 8.883 22.184 17.514.433 4.059-1.997 8.736-1.948 11.676zM178.323 51.185c-.075 2.857 5.84 6.515 9.342 8.562 4.304 2.517 8.546 4.785 12.065 6.228 9.256 3.794 18.062 7.274 27.245 8.952 12.198 2.227 23.858 3.059 35.419 4.671 11.947 1.664 24.339 4.4 35.806 4.67 7.788.183 24.28-1.425 24.52-7.005.145-3.391-5.744-6.608-9.731-8.952-11.516-6.773-27.744-12.089-40.867-15.568-19.488-5.167-44.903-9.511-67.332-8.563-6.879.29-26.292.443-26.467 7.005zm-1.556 16.736c6.471.666 13.997 2.349 19.848 2.336-7.13-2.859-13.728-6.251-19.071-10.898-.392 2.72-.683 5.542-.777 8.562zm-48.651-1.168c8.699 59.414 17.881 118.341 26.466 177.867 38.011 2.596 76.666 4.549 114.816 7.006 1.198-5.936 2.013-12.258 2.724-18.682-26.62-5.384-54.824-12.917-71.614-28.023-3.415-3.073-8.989-9.186-9.73-14.011-.736-4.794.546-11.465 1.168-17.125.615-5.602 1.39-11.574 1.946-17.126 1.181-11.819 1.849-23.421 4.67-33.471-10.016-4.261-22.082-8.402-28.023-17.125-3.206-4.708-1.846-11.505-1.168-19.072.436-4.874.991-9.588 1.557-14.4-14.202-2.014-28.54-3.892-42.812-5.838zm137.39 21.018c-10.012-1.137-19.864-2.978-29.58-5.06-19.436-4.165-38.649-6.939-59.549-9.341-1.098 5.129-.981 11.473-1.946 16.735 22.251-9.34 56.413-5.535 83.29 0 22.751 4.686 43.38 11.105 56.046 21.407 1.085.882 2.126 2.518 3.503 2.335.961-7.083 2.418-13.67 3.114-21.017-17.294-3.323-36.704-2.996-54.878-5.059zm160.743 7.395c8.28 3.659 17.419 6.607 26.855 9.341 9.412 2.726 20.24 3.527 31.137 5.06 10.516 1.48 22.147 4.354 31.915 4.281 3.916-.029 11.657-1.301 12.065-4.281.322-2.336-5.798-6.995-8.95-8.952-18.885-11.724-43.831-17.875-68.502-22.185-14.056-2.457-35.644-4.884-45.536 1.556 3.776 7.782 12.661 11.487 21.016 15.18zm-107.422-7.785c1.384-.043 3.388.534 2.725-1.556-.947.48-2.526.328-2.725 1.556zm83.29 11.288c8.66.422 17.27 2.968 25.299 2.724-9.085-3.241-16.901-7.749-23.742-13.233-.242 3.562-1.82 7.722-1.557 10.509zM110.601 292.883c11.879.057 23.028.844 34.64 1.168.444-16.028 4.824-31.51 4.281-47.094-.441-12.675-3.833-26.125-5.838-39.31-5.925-38.956-11.878-81.239-17.904-118.319-5.293 67.619-10.425 135.397-15.179 203.555zm125.325-201.22c-10.659-1.317-22.565-3.117-32.303-1.946-7.996.96-29.438 1.894-29.97 9.729-.333 4.93 7.787 9.695 12.065 12.067 3.419 1.894 12.835 7.673 16.736 7.395 1.706-.122 4.368-2.48 5.839-3.114 27.832-11.992 75.868-4.46 103.919 1.945-16.794-14.168-47.561-22.527-76.286-26.076zm107.811 35.418c9.392 1.513 19.238 1.389 28.411 2.724 9.368 1.363 20.031 3.933 26.855 5.06-10.645-4.917-5.754-21.136-3.503-31.915-23.357-2.979-46.339-6.334-69.669-9.341-1.097 9.021-2.946 17.293-3.891 26.467 6.973.722 14.207 5.783 21.797 7.005zm338.61-4.281c-6.89-3.281-14.916-6.289-22.573-8.952-15.741-5.474-34.26-10.317-51.765-11.287-6.576-.364-13.642-.265-17.515 1.946 4.486 8.292 15.169 12.183 24.911 16.347 9.505 4.063 20.393 8.734 30.748 10.897 8.807 1.84 18.195 2.223 27.242 3.503 8.668 1.226 18.071 4.087 26.468 1.167-2.932-6.326-10.495-10.279-17.516-13.621zm-219.513-9.73c-19.688-4.805-40.327-5.725-61.495-9.341-1.214 2.812-2.469 7.647-1.945 10.898 24.578-6.759 53.905-.539 75.895 6.227 12.706 3.909 24.646 8.083 34.639 14.011 3.453 2.048 5.985 5.599 10.119 6.227 2.542-6.15 3.816-13.569 5.448-20.628-22.284-1.201-42.71-2.526-62.661-7.394zm122.601 10.507c10.556.602 20.993 3.395 30.747 3.504-10.425-3.845-19.889-8.652-27.634-15.18-1.165 3.765-2.226 7.635-3.113 11.676zm-375.975-1.945c23.791 5.644 56.177 15.494 87.571 10.509 6.996-1.111 15.139-2.759 18.294-8.174-29.21-7.154-76.627-14.905-105.865-2.335zm255.321 1.945c-15.618-3.934-33.122-8.108-51.376-6.616-5.391.44-15.574 1.934-15.957 6.616-.427 5.202 8.68 9.701 12.844 12.066 16.689 9.483 35.594 14.792 56.045 19.071 2.7-16.059 23.561-14.421 40.478-15.179-11.59-6.944-26.146-11.955-42.034-15.958zm66.553-1.945c-2.228 6.087-4.113 14.554-5.059 20.628 21.749 1.863 38.546 10.754 57.991 13.623-3.609-2.685-8.4-5.207-9.34-10.12-1.173-6.13 3.116-11.928 3.502-17.904-15.693-2.079-31.071-4.476-47.094-6.227zm273.223 14.79c-18.396-6.453-38.914-12.828-59.547-10.897 3.43 6.685 11.576 9.496 18.682 12.844 7.292 3.435 15.032 6.407 23.353 9.34 14.974 5.28 40.171 13.15 58.38 10.12-8.67-10.048-24.893-15.804-40.868-21.407zm-593.151 5.838c5.622 4.481 14.115 8.358 23.353 12.066 8.712 3.497 18.802 8.093 26.076 9.34 7.657 1.314 15.006.154 21.407 1.946 1.269-7.119 1.413-16.606 3.504-22.574.888-2.538 2.786-4.018 2.334-5.059-31.979 1.356-59.679-4.925-84.069-12.454-4.195 7.27 3.243 13.426 7.395 16.735zm109.368-14.79c.798-1.148 4.26.369 5.058-.778-1.937-.139-3.061-1.09-5.058-1.167-.224.234-.911 1.845 0 1.945zm261.548 8.173c22.748-3.726 46.178 2.235 64.996 8.562 11.943 4.017 23.512 8.435 33.084 14.401 3.286 2.049 5.922 5.701 10.119 5.838 2.782-6.299 4.881-13.28 6.618-20.628-18.455 1.681-35.543-3.805-51.375-7.005-20.48-4.138-40.265-4.154-61.497-8.174-.982 2.004-1.531 4.438-1.945 7.006zm-260.77-3.113c-9.936.765-30.733 4.514-31.136 14.401-.273 6.692 7.628 12.635 12.065 15.958 4.51 3.376 12.768 9.3 17.904 10.508 9.722 2.287 23.522.672 34.639-1.168 8.696-1.44 23.438-4.434 23.742-12.844.25-6.915-9.567-13.625-14.79-16.736-6.703-3.993-14.691-8.66-21.795-10.12-3.53-.725-10.649-.123-13.234 0-2.235.107-5.085-.177-7.395.001zm450.703 15.958c-.032.605 1.133.269.39 0-10.97-4.6-21.704-9.435-30.359-16.347-1.181 4.139-2.711 7.927-3.892 12.065 11.523 1.189 22.171 3.256 33.861 4.282zm-390.765 2.335c4.338 6.746 1.631 14.947 0 23.741-1.086 5.857-1.681 11.507-3.113 17.125 22.519 4.999 54.269 8.474 79.009 3.114 2.439-8.588 4.022-18.032 6.227-26.855-27.138-18.66-63.847-29.822-104.308-33.861 7.734 4.454 17.358 9.229 22.185 16.736zm236.638-8.563c-8.453-1.559-18.252-3.758-26.855-2.725-3.588.431-10.306 1.114-10.898 3.893-.642 3.011 4.142 6.295 7.395 8.563 9.981 6.958 21.557 11.307 33.472 15.568 16.986 6.073 33.423 9.735 54.878 10.119 1.386-4.323 2.637-8.78 5.84-11.287-15.508-10.95-40.376-19.804-63.832-24.131zm-420.733 32.304c9.801-7.194 27.13-10.232 43.979-11.676-15.676-5.343-29.439-12.595-40.477-22.575-.844 11.74-2.306 22.863-3.502 34.251zm499.744-10.508c11.995-.589 23.265 1.548 33.471 3.892-4.959-3.761-2.167-13.701.39-19.46-9.353-1.288-18.905-2.373-28.024-3.892-1.844 6.589-4.445 12.42-5.837 19.46zm-186.821-7.785c5.101-1.532 10.854-5.504 5.449-10.118-6.055-.908-13.805-1.115-21.017-.779-9.75.453-21.341.665-22.185 10.119 8.043 1.107 27.663 3.808 37.753.778zm14.4-8.951c-.56 1.256-.745 2.887-1.167 4.28 6.201-1.199 12.578-.441 18.683-1.168-6.054-.822-11.205-2.547-17.516-3.112zm212.118 1.945c-.77 1.305-1.28 2.872-1.556 4.671 20.984-1.869 40.004 4.499 56.435 9.73.585-2.397 1.573-4.394 2.336-6.616-19.103-2.563-38.228-5.105-57.215-7.785zm-226.128 15.958c-.95 6.513 7.836 12.428 12.065 15.568 9.514 7.065 18.322 11.413 31.525 14.011 13.496 2.657 30.347 5.482 45.927 4.282 7.485-.576 18.398-2.879 19.071-8.173 1.031-8.111-14.511-16.678-19.459-19.46-8.132-4.574-18.324-9.833-27.245-12.066-9.905-2.48-28.633-3.699-38.532-3.114-9.316.551-22.286 1.621-23.352 8.952zm-223.407 1.167c4.521.412 9.551 2.383 13.623 1.946-4.533-3.12-8.594-6.715-12.066-10.897-.844 2.658-.712 6.293-1.557 8.951zm445.643-5.837c9.615 15.685 35.338 15.259 50.986 24.909 1.638-5.888 3.979-11.07 5.839-16.736-15.612-4.48-39.189-13.521-56.825-8.173zm-268.163 1.556c.447-.46.44-1.376.388-2.335-1.732.288-3.585-1.323-4.67-.389 1.583.753 2.828 1.843 4.282 2.724zm331.994 3.503c14.493 4.966 27.511 11.408 38.142 20.239.311-1.633 1.059-2.833 1.557-4.281-12.665-7.315-24.747-15.215-37.364-22.575-.758 2.227-1.67 4.299-2.335 6.617zm41.644 10.898c1.499-4.211 3.282-8.135 4.669-12.454-10.207 1.018-21.512-2.02-29.967-2.724 8.72 4.772 16.736 10.248 25.298 15.178zm-336.275 1.167c.821-5.405 2.335-10.119 3.503-15.18-9.351 1.133-20.404-.306-28.412-.388 7.013 6.48 15.5 11.486 24.909 15.568zm-32.693-11.676c5.585 4.54 11.994 11.508 9.34 21.796 6.161-1.197 14.818-.768 21.018-.778.001-1.556.778-2.336.778-3.892-11.467-5.528-22.56-11.431-30.358-20.629-.215 1.213-.318 2.537-.778 3.503zm155.294 26.078c-.608 8.045-5.36 14.605-6.617 22.964 14.992 1.876 34.786 3.498 47.094-1.947.829-3.711 2.182-6.898 3.113-10.509-14.485-18.208-40.039-27.424-64.22-34.639 8.143 5.966 21.597 11.322 20.63 24.131zm-386.483-23.353c-12.507 1.503-27.113 3.146-35.418 8.562-2.995 1.954-6.29 6.055-6.617 9.34-.595 5.979 4.493 11.109 7.783 14.012 16.704 14.729 43.293 21.525 68.89 27.244 2.732-18.025 5.629-35.887 7.784-54.489-13.155-2.187-25.167-6.742-42.422-4.669zm456.929.389c.088.736-.438.859-.389 1.557 5.492.003 14.417-.528 20.238-.388-6.537-.469-12.544-1.469-19.849-1.169zm-360.016 10.119c11.611 4.865 24.353 8.6 38.142 11.287.68-6.716 3.123-13.741 3.114-19.849-9.736 6.871-25.62 7.594-41.256 8.562zm459.652-8.562c-2.071 5.712-4.021 11.545-6.225 17.125 10.914 4.798 29.797 9.279 43.59 5.06-7.921-11.928-23.265-16.434-37.365-22.185zm-107.03 2.725c.185-4.809-7.075-.965-3.892 3.113 1.714-.885 3.824-1.372 3.892-3.113zm-224.184 18.682c11.393-1.524 13.14-14.135 4.671-19.85-1.811 6.363-2.861 13.486-4.671 19.85zM278.35 228.663c25.271 4.24 64.778 5.908 82.9-5.06 3.011-1.822 6.987-5.93 7.395-9.34.571-4.773-3.116-10.082-5.838-12.844-4.896-4.969-12.9-10.019-21.017-13.623-7.873-3.495-18.335-7.983-25.687-9.341-10.18-1.878-20.555-1.078-29.58-3.892-3.226 17.532-5.348 36.169-8.173 54.1zm238.974-44.369c.907-.513-1.335-1.842-2.336-2.724-1.27-1.121-2.659-2.65-3.893-3.114-.552-1.652-1.797-2.613-2.724-3.892-.727 1.608-.829 3.841-1.556 5.449 3.441 1.489 7.259 2.6 10.509 4.281zm226.907-3.113c-13.089-3.29-27.998-6.602-42.813-5.449-5.427.423-10.017 1.689-12.845 5.449 10.061 10.114 23.986 15.722 38.143 21.406 14.104 5.662 29.577 10.696 45.928 13.622 2.748-8.018 5.726-15.81 8.562-23.742-10.983-4.193-23.591-7.922-36.975-11.286zm-73.558 14.401c1.247-4.203 2.523-8.373 3.891-12.455-8.666.361-17.075-1.608-23.742-1.946 7.719 3.697 13.482 9.35 19.851 14.401zm9.729-12.844c-1.38 7.466-7.195 15.316-5.061 22.574 1.996-7.485 5.605-15.401 6.619-22.574h-1.558zm155.682 14.011c-5.531 6.033-17.842 1.922-26.466 2.725 10.096 5.214 19.458 11.159 26.466 19.46 3.633-10.377 7.856-20.167 11.677-30.358-2.343-1.161-4.22-2.787-6.617-3.892-2.708 4.222-2.005 8.732-5.06 12.065zm-330.826-9.341c2.222-.522 4.263 1.17 5.838 0-2.064-.399-3.472-1.457-5.448-1.946.158.938-.711.846-.39 1.946zm400.495 30.358c5.174 3.131 10.259 7.194 15.178 9.341 4.972 2.168 11.773 3.179 18.294 4.67 10.973 2.51 23.159 5.772 34.249 1.557-4.519-8.375-13.607-13.191-21.795-17.515-26.214-13.843-56.023-24.154-92.242-26.855-.238.022-.461.058-.39.389 14.753 8.588 31.74 19.357 46.706 28.413zM680.79 206.09c10.125-1.095 20.103 1.116 28.802 1.167-9.1-4.651-16.849-10.653-23.741-17.513-1.468 5.666-3.417 10.854-5.061 16.346zm-203.166-12.843c-2.212 8.036-3.955 16.542-5.838 24.909 4.878 4.852 11.235 8.227 17.903 11.287 2.512-12.667 5.971-24.388 8.563-36.975-6.829-1.197-14.308.183-20.628.779zm416.841 24.519c.419-.578-.803-1.321-1.165-1.557-.77-.499-1.869-1.032-2.725-1.557-12.446-7.617-25.932-16.119-37.754-22.185 10.135 12.181 26.544 18.085 41.644 25.299zM494.75 231.777c23.499 9.52 51.959 20.464 86.403 17.904 9.779-.727 23.763-2.705 24.131-11.287.351-8.153-10.964-15.549-17.125-19.461-22.99-14.599-51.27-22.596-84.068-26.077-3.402 12.688-6.559 25.616-9.341 38.921zm-123.769-28.801c.222-2.503.888-4.561 1.167-7.006-3.573-.322-7.515-2.341-10.508-1.946 4.033 2.066 6.357 5.839 9.341 8.952zm414.895-8.173c-2.188 7.929-5.435 14.803-7.784 22.574 10.94 1.33 27.64 4.343 35.42-1.946-2.295-11.7-17.449-17.043-27.636-20.628zm-324.598 8.952c-.273 4.304 2.999 7.712 5.839 10.509 1.375-6.278 2.767-12.541 4.281-18.681-.087-.304-.326-.453-.779-.39-3.749 2.582-9.007 3.279-9.341 8.562zm-83.291-6.617c-.489.159-.795.502-.779 1.168-1.791 14.521-3.894 24.378-13.622 29.969-19.883 11.428-60.587 10.235-86.015 5.838-.759 5.987-1.981 11.512-2.336 17.903 60.546 3.285 120.274 7.387 180.982 10.508 2.235-10.542 4.284-20.53 6.616-30.747.694-3.038 3.02-7.699 2.725-10.119-.483-3.952-7.366-7.962-8.953-12.844-.776-2.388-.887-4.548-.389-8.173-25.213 4.565-55.653 1.433-78.229-3.503zm462.378 25.299c22.642-2.695 44.338 4.445 63.442 11.287 18.917 6.775 38.19 15.188 50.598 26.855 1.343 1.263 3.172 5.116 4.67 4.282 1.015-1.969 2.2-3.767 2.724-6.228-10.33-6.58-21.63-13.816-32.304-20.238-3.508-2.111-7.324-5.113-10.898-6.617-6.226-2.619-12.921-3.838-19.072-6.227-18.581-7.217-36.261-15.403-49.817-27.634-2.76 8.529-6.264 16.31-9.343 24.52zm-252.596-17.904c-6.613-.3-15.269-2.565-18.682-1.557.119-.035.269.029.39 0 13.105 5.058 28.031 8.294 43.203 11.287 1.309-4.398 2.615-8.801 3.892-13.233-7.01 2.784-18.17 3.986-28.803 3.503zm181.76 20.628c-.012-1.7 1.075-2.298 1.167-3.892-20.475-3.264-38.609-10.948-55.267-16.736 16.554 8.357 34.811 15.01 54.1 20.628zm-90.685-13.233c-1.248 4.98-3.241 9.213-4.28 14.401 18.996 18.496 49.446 28.915 81.344 35.808 3.666-10.087 7.48-20.025 10.898-30.359-25.121-10.373-52.428-22.455-87.962-19.85zm134.277 20.628c8.831-.381 19.221.797 20.238-7.395-3.432-6.168-8.83-10.371-14.789-14.011 1.952 8.233-4.145 13.962-5.449 21.406zm-219.124-16.347c5.652 3.561 9.943 8.481 14.399 13.233.612-3.67 1.998-6.568 2.726-10.12-5.372-.87-13.797-2.787-17.125-3.113zm22.575 3.893c-3.807 11.496-4.732 24.777-13.622 29.969-13.794 8.053-40.175 6.172-58.771 2.725-16.973-3.147-31.941-7.847-45.538-13.233-1.766-.699-3.672-1.913-5.449-1.557-2.503 8.524-4.215 17.839-6.616 26.466 54.006 3.338 108.257 6.428 162.3 9.73 3.801-11.958 8.057-25.495 12.065-38.143 1.789-5.646 4.797-11.772 3.112-16.347-12.763 3.29-32.822 3.021-47.481.39zm159.575 2.335c-.444 1.374-1.207 2.426-1.167 4.281 10.468 2.117 20.639 4.527 32.304 5.449.919-3.103 2.477-5.566 3.114-8.953-10.531 2.724-23.735.852-34.251-.777zm-314.481 40.477c6.273.604 12.815.938 19.461 1.167 2.409-9.656 4.76-19.37 7.005-29.19-6.509-2.962-12.285-6.656-17.903-10.509-2.67 13.028-6.067 25.33-8.563 38.532zM838.03 230.22c-1.241 3.438 4.086 7.439 7.394 10.12 16.648 13.485 39.9 22.734 62.275 29.19 9.664 2.788 19.687 5.557 30.746 6.227 6.262.38 16.419.391 17.125-3.502.546-3.012-5.58-8.209-8.562-10.509-10.931-8.432-25.122-15.055-37.364-19.849-19.054-7.462-39.77-15.484-61.496-14.79-4.201.135-8.979-.04-10.118 3.113zm-179.036 44.759c30.655 1.26 60.118 3.714 90.686 5.059 1.067-4.641 3.169-8.248 4.281-12.843-32.266-6.525-60.073-17.51-81.734-34.64-4.203 14.349-9.094 28.013-13.233 42.424zm141.672-24.909c1.063-4.647 3.398-8.02 4.281-12.844-8.401-.161-16.324-2.875-23.351-3.113 7.619 4.056 13.653 9.699 19.07 15.957zm-3.504 7.785c.425-3.333-2.996-7.228-5.057-9.341-5.248-5.373-13.204-9.605-19.461-13.622h-1.168c-2.884 9.576-7.525 19.453-9.731 28.412 9.341.545 34.238 3.833 35.417-5.449zm14.014-20.24c-3.956 8.501-6.421 18.488-10.899 26.466-8.736 7.465-26.697 5.767-40.867 4.282-1.263 4.184-2.884 8.014-4.281 12.066 18.638 1.342 37.778 2.181 56.434 3.503 4.819-13.686 11.166-28.435 16.349-41.646.667-1.702 1.788-4.019 1.166-5.838-4.807 1.338-12.183 2.02-17.902 1.167zm153.346 15.959c1.73-4.629 3.951-8.765 5.839-13.233-11.605 1.53-23.262-1.752-32.305-2.725 9.027 5.115 17.53 10.753 26.466 15.958zm-147.12 30.747c68.859 3.793 137.071 8.235 205.891 12.065-17.341-11.333-38.411-24.38-56.825-34.64-3.457 5.804-4.078 13.803-9.341 17.125-4.128 2.607-12.706 2.762-19.072 2.336-19.963-1.339-39.63-7.888-57.213-15.18-18.124-7.514-34.976-16.279-45.536-27.245-.024-.236-.059-.46-.39-.388-5.597 15.551-12.168 30.124-17.514 45.927zm-662.82-33.083c-.781 14.531-3.151 29.539-3.503 43.202 37.382 1.15 74.455 2.609 111.314 4.282 2.578-13.379 4.346-27.569 6.227-41.646-37.38-2.709-75.713-4.464-113.26-7.005-.547.101-.444.854-.778 1.167zm119.487 7.006c-1.96 13.479-4.01 26.867-5.838 40.478 59.133 2.49 118.734 4.516 177.868 7.005 2.825-12.613 5.859-25.019 8.563-37.753-59.991-3.448-119.502-7.38-179.814-10.508-.007-.915-1.064.141-.779.778zm186.43 10.119c-3.478 11.961-5.715 25.162-8.952 37.364 6.231.514 12.811.683 19.46.778 2.982-12.326 5.822-24.795 8.952-36.974-6.392-.484-12.916-.836-19.46-1.168zm24.52 2.725c-2.783 12.006-5.694 23.885-8.562 35.806 53.405 1.993 106.87 3.925 159.964 6.228 3.618-11.171 7.522-22.057 10.509-33.861-54.037-2.787-107.185-6.464-161.132-9.342-.49.161-.796.503-.779 1.169zm161.911 42.423c29.855 1.021 59.731 2.024 89.13 3.503 3.772-10.498 7.749-20.79 11.286-31.525-29.793-1.992-59.975-3.596-89.906-5.449-3.762 10.9-7.514 21.809-10.51 33.471zm106.642-27.635c-4.763 10.415-8.124 22.233-12.455 33.083 14.339 12.258 27.605 25.589 42.034 37.753 8.384-22.884 17.709-44.823 26.076-67.721-18.763-.826-36.854-2.324-55.655-3.115zm33.862 73.951c11.068 12.542 24.259 22.967 36.585 34.25 37.226 34.08 73.823 68.421 111.703 101.584 29.107-62.768 63.241-125.359 92.242-187.598.812-1.739 2.206-3.779 1.946-5.838-71.451-4.311-143.096-8.435-214.453-12.845-9.887 22.937-18.379 47.269-28.023 70.447zm-676.833-60.716c4.334 74.284 8.747 148.494 13.623 222.237 7.046-73.778 13.736-147.915 20.629-221.848-10.973-.834-22.912-.7-33.862-1.557-.454.065-.423.616-.39 1.168zm15.957 256.098c267.863-18.577 534.635-38.296 802.547-56.823-2.019-3.305-5.402-5.626-8.174-8.175-39.045-35.886-78.889-72.108-117.93-107.421-5.971-5.398-11.37-11.762-18.293-15.957-6.077 16.698-12.511 31.825-18.682 47.872-2.035 5.298-3.402 11.402-6.227 15.958-5.18 8.354-18.643 12.29-31.915 12.455-22.462.279-43.377-5.905-62.273-14.79-20.652-9.714-39.796-22.87-45.926-44.371-4.39 15.2-9.351 29.831-14.011 44.759-9.1 15.345-31.367 19.941-54.879 18.683-30.869-1.653-56.895-11.639-75.506-25.688-8.87-6.695-19.87-16.33-22.574-28.022-2.268-9.805 1.363-17.46 3.502-26.077 4.638-18.681 9.092-36.779 13.234-55.657-6.289-.328-12.702-.531-19.072-.778-6.294 28.306-13.117 56.668-19.461 84.458-3.113 13.64-4.821 29.235-12.454 37.754-13.62 15.201-40.304 20.238-66.554 20.238-26.641 0-52.326-7.284-70.446-17.127-10.149-5.509-22.373-15.059-28.023-25.297-1.394-2.527-3.323-6.375-3.891-8.951-2.348-10.634 1.229-20.505 2.724-30.748 3.292-22.56 6.273-45.895 9.73-67.333-36.569-2.093-74.486-2.836-111.313-4.67-8.834 84.444-15.932 170.629-24.133 255.708zm140.505-249.871c-3.168 23.557-6.685 46.766-10.12 70.057 36.704-36.556 132.94-19.303 160.743 16.347 2.408 3.087 4.532 6.926 6.227 10.12 6.954-30.024 14.646-61.378 20.629-91.077-59.217-1.885-117.662-4.55-176.701-6.616-.547.103-.444.854-.778 1.169zm207.836 7.784c-4.372 18.202-8.484 36.664-13.233 54.489 1.396.429 3.188-1.359 5.061-2.335 7.244-3.782 16.022-6.602 25.688-7.395 41.367-3.396 79.492 13.823 101.583 32.694 4.561 5.558 9.443 10.794 12.454 17.902 9.37-30.199 19.113-60.026 28.414-90.296-53.331-1.678-105.701-4.314-159.187-5.836-.203-1.113-.577.627-.78.777zm155.683 52.154c23.619-11.935 58.062-2.758 81.345 7.006 21.599 9.056 40.075 21.833 49.04 40.478 6.572-16.652 13.318-33.128 19.459-50.208-10.24-10.147-21.282-20.301-32.691-30.748-3.45-3.157-8.319-8.896-11.676-9.731-2.896-.72-7.565-.26-11.288-.388-27.148-.942-53.174-1.898-79.398-3.115-5.396 14.844-10.913 31.641-14.791 46.706zm-364.298 8.951c-7.385 5.589-13.889 15.799-11.287 26.855 3.12 13.258 17.436 24.27 29.191 30.748 20.136 11.096 47.114 16.861 73.56 16.735 22.673-.108 48.174-7.531 57.992-20.627 10.626-14.175 1.338-30.375-8.952-40.091-9.612-9.072-23.2-14.77-37.365-19.459-14.472-4.79-32.452-8.175-49.04-7.784-23.894.565-42.879 5.131-54.099 13.623zm192.269 7.395c-1.741 4.812-.307 12.446 1.557 16.347 2.455 5.144 8.738 12.02 12.843 15.568 11.607 10.031 32.743 20.281 52.154 24.909 21.154 5.044 50.33 6.635 66.555-3.112 3.855-2.318 8.061-6.454 9.729-10.509 2.989-7.271-.25-16.057-3.502-21.017-8.793-13.407-26.377-23.176-41.645-29.581-16.954-7.11-38.046-12.442-60.328-10.898-15.654 1.086-32.604 5.142-37.363 18.293zm166.97-1.946c-.472 2.914 1.04 8.938 1.948 10.899 3.231 6.994 10.877 13.81 17.511 19.072 6.735 5.337 14.079 9.922 22.965 14.013 15.997 7.359 36.498 14.477 59.549 14.009 13.541-.273 28.349-4.427 29.58-15.18 1.222-10.703-8.147-19.259-14.401-24.907-8.081-7.3-15.647-11.803-23.741-15.958-15.946-8.187-39.243-16.82-63.053-16.346-13.646.269-28.495 2.929-30.358 14.398z"/><g fill="#66111A"><path d="M149.545 363.056c0 11.351-2.676 19.198-8.021 23.541-5.345 4.348-9.667 7.095-12.963 8.246-3.3 1.155-14.214 1.555-32.747 1.197v68.628H56.18v-186.2h39.9c17.556 0 29.526 1.243 35.91 3.724 11.704 4.435 17.556 14.189 17.556 29.26v51.604zm-39.633-3.275v-45.054c0-4.473-1.658-7.424-4.975-8.854-1.845-.715-4.884-1.072-9.123-1.072v64.904c4.605 0 7.556-.266 8.845-.807 3.499-1.428 5.253-4.466 5.253-9.117zM243.975 376.356h-36.974v-32.938c0-4.639-2.128-6.962-6.384-6.962-2.128 0-3.724.536-4.788 1.6-1.064 1.068-1.596 2.756-1.596 5.062v121.55h-36.974V313.846h36.974v4.987c2.128-1.754 5.187-3.2 9.177-4.339 3.99-1.139 8.554-1.712 13.699-1.712 7.801 0 14.231 2.086 19.285 6.251 5.054 4.169 7.581 9.269 7.581 15.295v42.028zM338.402 436.206c0 11.351-4.256 19.51-12.768 24.472-6.916 4.077-16.937 6.118-30.058 6.118-13.3 0-23.587-2.215-30.856-6.65-8.69-5.319-13.034-13.74-13.034-25.27v-90.174c0-11.347 4.343-19.685 13.034-25.004 7.448-4.609 17.731-6.916 30.856-6.916 12.057 0 22.211 2.618 30.457 7.847 8.246 5.232 12.369 12.813 12.369 22.743v92.834zm-36.974-.512v-92.073c0-2.477-.532-4.335-1.596-5.573s-2.66-1.857-4.788-1.857c-1.775 0-3.283.619-4.522 1.857-1.243 1.238-1.862 3.097-1.862 5.573v92.073c0 2.478.532 4.377 1.596 5.703 1.064 1.33 2.66 1.99 4.788 1.99s3.724-.66 4.788-1.99c1.064-1.326 1.596-3.225 1.596-5.703zM382.555 467.328c0 7.091-.623 12.236-1.862 15.428-1.954 4.963-5.677 8.778-11.172 11.438-1.775.885-4.256 1.504-7.448 1.861-3.192.354-6.65.532-10.374.532h-26.866v-21.812h12.236c3.545 0 5.852-.844 6.916-2.527 1.064-1.688 1.596-4.302 1.596-7.847V313.846h36.974v153.482zm0-161.728h-36.974v-26.866h36.974V305.6zM479.111 436.206c0 11.172-4.435 19.331-13.3 24.472-7.095 4.077-17.203 6.118-30.324 6.118-13.125 0-23.233-2.215-30.324-6.65-8.512-5.319-12.768-13.74-12.768-25.27v-90.174c0-11.347 4.165-19.685 12.502-25.004 7.27-4.609 17.465-6.916 30.59-6.916 12.943 0 23.051 2.04 30.324 6.118 8.865 4.966 13.3 13.125 13.3 24.472v57.456H429.37v34.896c0 2.469.532 4.36 1.596 5.682s2.66 1.982 4.788 1.982 3.724-.656 4.788-1.979c1.064-1.321 1.596-3.212 1.596-5.682v-30.111h36.974v30.59zm-36.973-58.254v-34.36c0-2.469-.532-4.318-1.596-5.553-1.064-1.229-2.66-1.849-4.788-1.849-1.774 0-3.283.619-4.522 1.849-1.243 1.234-1.862 3.084-1.862 5.553v34.36h12.768zM574.072 436.206c0 11.351-4.256 19.51-12.768 24.472-6.916 4.077-16.937 6.118-30.058 6.118-13.3 0-23.587-2.215-30.856-6.65-8.691-5.319-13.034-13.74-13.034-25.27v-90.174c0-11.347 4.343-19.685 13.034-25.004 7.448-4.609 17.73-6.916 30.856-6.916 12.768 0 22.697 2.04 29.792 6.118 8.687 4.966 13.034 13.125 13.034 24.472v37.24h-36.974v-36.975c0-2.481-.532-4.343-1.596-5.586-1.064-1.238-2.66-1.861-4.788-1.861-1.774 0-3.283.619-4.522 1.857-1.243 1.238-1.862 3.097-1.862 5.573v92.073c0 2.478.532 4.377 1.596 5.703 1.064 1.33 2.66 1.99 4.788 1.99s3.724-.66 4.788-1.982c1.064-1.321 1.596-3.217 1.596-5.686v-36.222h36.974v36.71zM654.933 464.668h-23.408c-15.96 0-25.761-2.165-29.393-6.505-3.637-4.335-5.453-14.289-5.453-29.862v-91.845h-16.492v-22.61h16.492v-30.324h36.974v30.324h19.95v22.61h-19.95v91.77c0 4.436 1.505 7.54 4.522 9.311 2.128 1.242 5.407 1.862 9.842 1.862h6.916v25.269zM802.291 427.914c0 10.479-3.283 19.003-9.842 25.569-7.273 7.456-17.556 11.185-30.856 11.185h-51.604v-186.2h48.146c13.475 0 23.982 3.014 31.521 9.032 7.535 6.022 11.305 13.99 11.305 23.907v25.765c0 5.669-1.146 10.361-3.433 14.081-3.699 5.669-10.479 10.183-20.337 13.546 10.391 2.664 17.527 6.749 21.4 12.252 2.465 3.55 3.699 8.434 3.699 14.646v36.217zm-39.634-84.276v-31.653c0-4.609-1.022-7.402-3.063-8.38-2.04-.972-5.008-1.463-8.906-1.463v51.338c4.081 0 6.679-.266 7.793-.798 2.784-1.417 4.176-4.431 4.176-9.044zm0 87.476v-47.272c0-4.626-1.022-7.428-3.063-8.408-2.04-.981-5.008-1.472-8.906-1.472v67.032c4.081 0 6.679-.267 7.793-.803 2.784-1.42 4.176-4.447 4.176-9.077zM897.784 376.356H860.81v-32.938c0-4.639-2.128-6.962-6.384-6.962-2.128 0-3.724.536-4.788 1.6-1.064 1.068-1.596 2.756-1.596 5.062v121.55h-36.975V313.846h36.975v4.987c2.128-1.754 5.187-3.2 9.177-4.339s8.554-1.712 13.699-1.712c7.801 0 14.23 2.086 19.285 6.251 5.054 4.169 7.58 9.269 7.58 15.295v42.028zM942.469 305.6h-36.974v-26.866h36.974V305.6zm0 159.068h-36.974V313.846h36.974v150.822zM1036.098 436.206c0 11.351-4.256 19.51-12.769 24.472-6.916 4.077-16.937 6.118-30.058 6.118-13.3 0-23.587-2.215-30.856-6.65-8.69-5.319-13.033-13.74-13.033-25.27v-90.174c0-11.347 4.343-19.685 13.033-25.004 7.448-4.609 17.73-6.916 30.856-6.916 12.768 0 22.697 2.04 29.792 6.118 8.687 4.966 13.034 13.125 13.034 24.472v37.24h-36.975v-36.975c0-2.481-.531-4.343-1.596-5.586-1.064-1.238-2.66-1.861-4.788-1.861-1.774 0-3.283.619-4.521 1.857-1.243 1.238-1.862 3.097-1.862 5.573v92.073c0 2.478.532 4.377 1.596 5.703 1.064 1.33 2.66 1.99 4.788 1.99s3.724-.66 4.788-1.982c1.064-1.321 1.596-3.217 1.596-5.686v-36.222h36.975v36.71zM1147.282 464.668h-43.358l-22.876-54.53v54.53h-36.974v-186.2h36.974v83.79l19.152-48.412h38.037l-26.6 66.135 35.645 84.687z"/></g></svg>